<svg xmlns="http://www.w3.org/2000/svg" xmlns:xlink="http://www.w3.org/1999/xlink" width="500" zoomAndPan="magnify" viewBox="0 0 375 374.999991" height="500" preserveAspectRatio="xMidYMid meet" version="1.0"><defs><g/><clipPath id="d1b2fdd2f8"><path d="M 154.425781 90.679688 L 238.929688 90.679688 L 238.929688 175.183594 L 154.425781 175.183594 Z M 154.425781 90.679688 " clip-rule="nonzero"/></clipPath><clipPath id="debecf864a"><path d="M 196.675781 90.679688 C 173.34375 90.679688 154.425781 109.597656 154.425781 132.933594 C 154.425781 156.269531 173.34375 175.183594 196.675781 175.183594 C 220.011719 175.183594 238.929688 156.269531 238.929688 132.933594 C 238.929688 109.597656 220.011719 90.679688 196.675781 90.679688 " clip-rule="nonzero"/></clipPath><clipPath id="42b952a968"><path d="M 154.425781 160 L 192 160 L 192 200 L 154.425781 200 Z M 154.425781 160 " clip-rule="nonzero"/></clipPath><clipPath id="81ab6be221"><path d="M 157 108.59375 L 215.925781 108.59375 L 215.925781 182 L 157 182 Z M 157 108.59375 " clip-rule="nonzero"/></clipPath><clipPath id="2c5bc58b1e"><path d="M 177 108.59375 L 215.925781 108.59375 L 215.925781 139 L 177 139 Z M 177 108.59375 " clip-rule="nonzero"/></clipPath><clipPath id="2700046962"><path d="M 155 196 L 215 196 L 215 201.59375 L 155 201.59375 Z M 155 196 " clip-rule="nonzero"/></clipPath></defs><rect x="-37.5" width="450" fill="#ffffff" y="-37.499999" height="449.999989" fill-opacity="1"/><rect x="-37.5" width="450" fill="#ffffff" y="-37.499999" height="449.999989" fill-opacity="1"/><rect x="-37.5" width="450" fill="#fff6eb" y="-37.499999" height="449.999989" fill-opacity="1"/><g clip-path="url(#d1b2fdd2f8)"><g clip-path="url(#debecf864a)"><path fill="#05686e" d="M 154.425781 90.679688 L 238.929688 90.679688 L 238.929688 175.183594 L 154.425781 175.183594 Z M 154.425781 90.679688 " fill-opacity="1" fill-rule="nonzero"/></g></g><path fill="#fff6eb" d="M 168.074219 197.164062 C 167.707031 197.164062 167.335938 197.082031 166.992188 196.917969 L 158.652344 192.949219 C 157.6875 192.488281 157.113281 191.46875 157.226562 190.402344 L 159.882812 165.074219 C 159.96875 164.261719 160.445312 163.535156 161.15625 163.136719 C 161.539062 162.921875 161.964844 162.8125 162.394531 162.8125 C 162.761719 162.8125 163.132812 162.894531 163.476562 163.058594 L 187.121094 174.316406 C 187.859375 174.667969 188.382812 175.359375 188.523438 176.167969 C 188.664062 176.976562 188.402344 177.800781 187.824219 178.382812 L 169.863281 196.421875 C 169.378906 196.90625 168.730469 197.164062 168.074219 197.164062 Z M 168.074219 197.164062 " fill-opacity="1" fill-rule="nonzero"/><g clip-path="url(#42b952a968)"><path fill="#05686e" d="M 162.394531 165.339844 L 186.035156 176.597656 L 168.074219 194.636719 L 159.738281 190.667969 L 162.394531 165.339844 M 162.394531 160.289062 C 161.539062 160.289062 160.6875 160.503906 159.921875 160.933594 C 158.496094 161.734375 157.542969 163.179688 157.371094 164.8125 L 154.714844 190.140625 C 154.492188 192.269531 155.636719 194.308594 157.566406 195.230469 L 165.90625 199.199219 C 166.597656 199.53125 167.339844 199.691406 168.074219 199.691406 C 169.386719 199.691406 170.679688 199.175781 171.648438 198.203125 L 189.613281 180.164062 C 190.769531 179.003906 191.289062 177.351562 191.011719 175.734375 C 190.730469 174.121094 189.683594 172.742188 188.207031 172.035156 L 164.5625 160.777344 C 163.875 160.449219 163.132812 160.289062 162.394531 160.289062 Z M 162.394531 160.289062 " fill-opacity="1" fill-rule="nonzero"/></g><path fill="#fff6eb" d="M 186.035156 179.125 C 185.671875 179.125 185.304688 179.046875 184.953125 178.878906 L 161.304688 167.621094 C 160.078125 167.035156 159.53125 165.578125 160.078125 164.328125 L 160.109375 164.25 C 160.167969 164.121094 160.222656 163.992188 160.28125 163.867188 L 183.734375 114.542969 C 184.339844 113.265625 186 111.128906 190.3125 111.128906 C 197.210938 111.128906 207.980469 116.636719 211.269531 121.847656 C 212.96875 124.542969 212.582031 126.671875 211.960938 127.984375 L 188.507812 177.308594 C 188.449219 177.433594 188.382812 177.558594 188.316406 177.6875 L 188.28125 177.757812 C 187.835938 178.625 186.953125 179.125 186.035156 179.125 Z M 186.035156 179.125 " fill-opacity="1" fill-rule="nonzero"/><g clip-path="url(#81ab6be221)"><path fill="#05686e" d="M 190.3125 113.65625 C 197.957031 113.65625 212.132812 121.746094 209.679688 126.898438 L 186.230469 176.222656 C 186.167969 176.351562 186.101562 176.472656 186.039062 176.597656 L 162.390625 165.339844 C 162.449219 165.210938 162.503906 165.078125 162.5625 164.953125 L 186.011719 115.628906 C 186.671875 114.238281 188.257812 113.65625 190.3125 113.65625 M 190.3125 108.601562 C 184.613281 108.601562 182.316406 111.644531 181.453125 113.457031 L 158.003906 162.78125 C 157.929688 162.933594 157.863281 163.085938 157.796875 163.242188 L 157.765625 163.316406 C 156.671875 165.8125 157.761719 168.730469 160.222656 169.902344 L 183.871094 181.160156 C 184.570312 181.496094 185.308594 181.652344 186.035156 181.652344 C 187.867188 181.652344 189.628906 180.652344 190.523438 178.917969 L 190.558594 178.847656 C 190.636719 178.699219 190.714844 178.546875 190.789062 178.394531 L 214.238281 129.070312 C 214.972656 127.523438 215.839844 124.359375 213.40625 120.5 C 209.617188 114.496094 198.179688 108.601562 190.3125 108.601562 Z M 190.3125 108.601562 " fill-opacity="1" fill-rule="nonzero"/></g><path fill="#fff6eb" d="M 206.433594 136.253906 C 206.0625 136.253906 205.691406 136.171875 205.347656 136.007812 L 181.679688 124.738281 C 180.421875 124.140625 179.886719 122.632812 180.488281 121.371094 L 183.734375 114.542969 C 184.339844 113.265625 186 111.128906 190.3125 111.128906 C 197.210938 111.128906 207.984375 116.636719 211.269531 121.847656 C 212.96875 124.542969 212.582031 126.671875 211.960938 127.984375 L 208.710938 134.8125 C 208.425781 135.417969 207.910156 135.882812 207.277344 136.109375 C 207.003906 136.207031 206.71875 136.253906 206.433594 136.253906 Z M 206.433594 136.253906 " fill-opacity="1" fill-rule="nonzero"/><g clip-path="url(#2c5bc58b1e)"><path fill="#05686e" d="M 190.3125 113.65625 C 197.957031 113.652344 212.132812 121.742188 209.679688 126.898438 L 206.433594 133.726562 L 182.765625 122.457031 L 186.011719 115.628906 C 186.671875 114.242188 188.257812 113.65625 190.3125 113.65625 M 190.316406 108.601562 C 190.316406 108.601562 190.3125 108.601562 190.3125 108.601562 C 184.613281 108.601562 182.316406 111.644531 181.453125 113.457031 L 178.207031 120.285156 C 177.007812 122.804688 178.078125 125.820312 180.597656 127.019531 L 204.265625 138.289062 C 204.964844 138.625 205.703125 138.78125 206.429688 138.78125 C 208.316406 138.78125 210.128906 137.71875 210.992188 135.898438 L 214.238281 129.070312 C 214.972656 127.523438 215.839844 124.359375 213.40625 120.5 C 209.617188 114.496094 198.179688 108.601562 190.316406 108.601562 Z M 190.316406 108.601562 " fill-opacity="1" fill-rule="nonzero"/></g><g clip-path="url(#2700046962)"><path fill="#05686e" d="M 212.195312 201.609375 L 158.15625 201.609375 C 156.761719 201.609375 155.632812 200.480469 155.632812 199.082031 C 155.632812 197.6875 156.761719 196.558594 158.15625 196.558594 L 212.195312 196.558594 C 213.589844 196.558594 214.71875 197.6875 214.71875 199.082031 C 214.71875 200.480469 213.589844 201.609375 212.195312 201.609375 Z M 212.195312 201.609375 " fill-opacity="1" fill-rule="nonzero"/></g><path fill="#fff6eb" d="M 179.953125 165.078125 C 179.304688 165.078125 178.6875 164.941406 178.117188 164.671875 C 173.863281 162.660156 174.945312 155.425781 177.910156 149.148438 C 180.109375 144.488281 184.121094 139.046875 188.1875 139.046875 C 188.835938 139.046875 189.457031 139.183594 190.023438 139.453125 C 194.28125 141.464844 193.195312 148.699219 190.234375 154.976562 C 188.035156 159.636719 184.019531 165.078125 179.953125 165.078125 Z M 179.953125 165.078125 " fill-opacity="1" fill-rule="nonzero"/><path fill="#05686e" d="M 188.1875 141.574219 C 188.460938 141.574219 188.714844 141.625 188.945312 141.734375 C 191.089844 142.75 190.644531 148.195312 187.953125 153.898438 C 185.550781 158.980469 182.175781 162.554688 179.953125 162.554688 C 179.683594 162.554688 179.429688 162.5 179.195312 162.390625 C 177.054688 161.375 177.5 155.929688 180.191406 150.226562 C 182.589844 145.144531 185.964844 141.574219 188.1875 141.574219 M 188.1875 136.519531 C 181.589844 136.519531 176.90625 145.359375 175.625 148.070312 C 174.070312 151.363281 173.085938 154.769531 172.847656 157.65625 C 172.347656 163.789062 175.257812 166.117188 177.039062 166.957031 C 177.949219 167.386719 178.929688 167.605469 179.953125 167.605469 C 186.550781 167.605469 191.238281 158.765625 192.515625 156.054688 C 194.070312 152.761719 195.058594 149.359375 195.292969 146.46875 C 195.796875 140.335938 192.882812 138.007812 191.101562 137.167969 C 190.195312 136.738281 189.214844 136.519531 188.1875 136.519531 Z M 188.1875 136.519531 " fill-opacity="1" fill-rule="nonzero"/><g fill="#cd5828" fill-opacity="1"><g transform="translate(93.928956, 248.770009)"><g><path d="M 23.078125 -20.265625 C 23.078125 -19.421875 22.960938 -18.6875 22.734375 -18.0625 C 22.503906 -17.4375 22.175781 -16.894531 21.75 -16.4375 C 21.332031 -15.988281 20.828125 -15.601562 20.234375 -15.28125 C 19.648438 -14.957031 19 -14.6875 18.28125 -14.46875 L 18.28125 -14.28125 C 19.15625 -14.050781 19.953125 -13.738281 20.671875 -13.34375 C 21.398438 -12.957031 22.03125 -12.484375 22.5625 -11.921875 C 23.09375 -11.359375 23.5 -10.703125 23.78125 -9.953125 C 24.070312 -9.210938 24.21875 -8.378906 24.21875 -7.453125 C 24.21875 -4.953125 23.304688 -3.082031 21.484375 -1.84375 C 19.671875 -0.613281 16.953125 0 13.328125 0 L 1.0625 0 L 1.0625 -2.03125 L 2.625 -2.03125 C 2.90625 -2.03125 3.164062 -2.054688 3.40625 -2.109375 C 3.65625 -2.160156 3.863281 -2.273438 4.03125 -2.453125 C 4.207031 -2.628906 4.347656 -2.878906 4.453125 -3.203125 C 4.554688 -3.523438 4.609375 -3.957031 4.609375 -4.5 L 4.609375 -22.734375 C 4.609375 -23.242188 4.554688 -23.65625 4.453125 -23.96875 C 4.347656 -24.289062 4.203125 -24.535156 4.015625 -24.703125 C 3.835938 -24.878906 3.628906 -25 3.390625 -25.0625 C 3.148438 -25.132812 2.894531 -25.171875 2.625 -25.171875 L 1.0625 -25.171875 L 1.0625 -27.1875 L 12.171875 -27.1875 C 15.796875 -27.1875 18.519531 -26.628906 20.34375 -25.515625 C 22.164062 -24.398438 23.078125 -22.648438 23.078125 -20.265625 Z M 10.609375 -2.328125 L 13.140625 -2.328125 C 13.984375 -2.328125 14.703125 -2.414062 15.296875 -2.59375 C 15.890625 -2.78125 16.375 -3.082031 16.75 -3.5 C 17.125 -3.914062 17.394531 -4.457031 17.5625 -5.125 C 17.726562 -5.800781 17.8125 -6.617188 17.8125 -7.578125 C 17.8125 -8.515625 17.734375 -9.328125 17.578125 -10.015625 C 17.429688 -10.703125 17.175781 -11.269531 16.8125 -11.71875 C 16.457031 -12.164062 15.988281 -12.5 15.40625 -12.71875 C 14.832031 -12.9375 14.101562 -13.046875 13.21875 -13.046875 L 10.609375 -13.046875 Z M 10.609375 -15.375 L 12.0625 -15.375 C 12.957031 -15.375 13.695312 -15.46875 14.28125 -15.65625 C 14.875 -15.84375 15.347656 -16.128906 15.703125 -16.515625 C 16.054688 -16.910156 16.304688 -17.414062 16.453125 -18.03125 C 16.597656 -18.65625 16.671875 -19.398438 16.671875 -20.265625 C 16.671875 -21.128906 16.585938 -21.851562 16.421875 -22.4375 C 16.253906 -23.019531 15.984375 -23.488281 15.609375 -23.84375 C 15.242188 -24.207031 14.765625 -24.46875 14.171875 -24.625 C 13.578125 -24.78125 12.851562 -24.859375 12 -24.859375 L 10.609375 -24.859375 Z M 10.609375 -15.375 "/></g></g></g><g fill="#cd5828" fill-opacity="1"><g transform="translate(119.511026, 248.770009)"><g><path d="M 3.265625 -26.59375 C 3.265625 -27.070312 3.347656 -27.484375 3.515625 -27.828125 C 3.691406 -28.179688 3.921875 -28.460938 4.203125 -28.671875 C 4.492188 -28.890625 4.832031 -29.050781 5.21875 -29.15625 C 5.613281 -29.269531 6.039062 -29.328125 6.5 -29.328125 C 6.9375 -29.328125 7.351562 -29.269531 7.75 -29.15625 C 8.144531 -29.050781 8.488281 -28.890625 8.78125 -28.671875 C 9.082031 -28.460938 9.320312 -28.179688 9.5 -27.828125 C 9.6875 -27.484375 9.78125 -27.070312 9.78125 -26.59375 C 9.78125 -26.113281 9.6875 -25.703125 9.5 -25.359375 C 9.320312 -25.015625 9.082031 -24.726562 8.78125 -24.5 C 8.488281 -24.28125 8.144531 -24.113281 7.75 -24 C 7.351562 -23.894531 6.9375 -23.84375 6.5 -23.84375 C 6.039062 -23.84375 5.613281 -23.894531 5.21875 -24 C 4.832031 -24.113281 4.492188 -24.28125 4.203125 -24.5 C 3.921875 -24.726562 3.691406 -25.015625 3.515625 -25.359375 C 3.347656 -25.703125 3.265625 -26.113281 3.265625 -26.59375 Z M 1.09375 -2.03125 C 1.382812 -2.03125 1.6875 -2.054688 2 -2.109375 C 2.3125 -2.160156 2.597656 -2.273438 2.859375 -2.453125 C 3.128906 -2.628906 3.351562 -2.878906 3.53125 -3.203125 C 3.71875 -3.523438 3.8125 -3.957031 3.8125 -4.5 L 3.8125 -16.0625 C 3.8125 -16.570312 3.71875 -16.976562 3.53125 -17.28125 C 3.351562 -17.582031 3.128906 -17.816406 2.859375 -17.984375 C 2.585938 -18.148438 2.289062 -18.257812 1.96875 -18.3125 C 1.65625 -18.363281 1.363281 -18.390625 1.09375 -18.390625 L 0.65625 -18.390625 L 0.65625 -20.421875 L 9.59375 -20.421875 L 9.59375 -4.5 C 9.59375 -3.957031 9.679688 -3.523438 9.859375 -3.203125 C 10.046875 -2.878906 10.269531 -2.628906 10.53125 -2.453125 C 10.800781 -2.273438 11.097656 -2.160156 11.421875 -2.109375 C 11.742188 -2.054688 12.039062 -2.03125 12.3125 -2.03125 L 12.75 -2.03125 L 12.75 0 L 0.65625 0 L 0.65625 -2.03125 Z M 1.09375 -2.03125 "/></g></g></g><g fill="#cd5828" fill-opacity="1"><g transform="translate(132.915585, 248.770009)"><g><path d="M 15.953125 0 L 15.953125 -12.53125 C 15.953125 -13.351562 15.898438 -14.082031 15.796875 -14.71875 C 15.691406 -15.351562 15.515625 -15.882812 15.265625 -16.3125 C 15.023438 -16.75 14.707031 -17.082031 14.3125 -17.3125 C 13.925781 -17.539062 13.457031 -17.65625 12.90625 -17.65625 C 12.269531 -17.65625 11.738281 -17.492188 11.3125 -17.171875 C 10.894531 -16.859375 10.554688 -16.429688 10.296875 -15.890625 C 10.046875 -15.347656 9.863281 -14.71875 9.75 -14 C 9.644531 -13.289062 9.59375 -12.546875 9.59375 -11.765625 L 9.59375 -4.5 C 9.59375 -3.96875 9.65625 -3.539062 9.78125 -3.21875 C 9.914062 -2.894531 10.097656 -2.640625 10.328125 -2.453125 C 10.566406 -2.273438 10.859375 -2.160156 11.203125 -2.109375 C 11.546875 -2.054688 11.925781 -2.03125 12.34375 -2.03125 L 12.453125 -2.03125 L 12.453125 0 L 0.765625 0 L 0.765625 -2.03125 L 0.84375 -2.03125 C 1.269531 -2.03125 1.660156 -2.054688 2.015625 -2.109375 C 2.378906 -2.160156 2.691406 -2.28125 2.953125 -2.46875 C 3.222656 -2.65625 3.429688 -2.921875 3.578125 -3.265625 C 3.734375 -3.617188 3.8125 -4.078125 3.8125 -4.640625 L 3.8125 -15.921875 C 3.8125 -16.453125 3.742188 -16.878906 3.609375 -17.203125 C 3.484375 -17.523438 3.300781 -17.773438 3.0625 -17.953125 C 2.820312 -18.128906 2.53125 -18.242188 2.1875 -18.296875 C 1.851562 -18.359375 1.476562 -18.390625 1.0625 -18.390625 L 0.953125 -18.390625 L 0.953125 -20.421875 L 8.9375 -20.421875 L 9.4375 -17.703125 L 9.625 -17.703125 C 10.007812 -18.421875 10.414062 -18.988281 10.84375 -19.40625 C 11.269531 -19.832031 11.722656 -20.15625 12.203125 -20.375 C 12.691406 -20.601562 13.207031 -20.742188 13.75 -20.796875 C 14.289062 -20.859375 14.859375 -20.890625 15.453125 -20.890625 C 16.429688 -20.890625 17.3125 -20.75 18.09375 -20.46875 C 18.875 -20.1875 19.53125 -19.75 20.0625 -19.15625 C 20.601562 -18.5625 21.015625 -17.800781 21.296875 -16.875 C 21.585938 -15.945312 21.734375 -14.835938 21.734375 -13.546875 L 21.734375 -4.71875 C 21.734375 -4.125 21.785156 -3.648438 21.890625 -3.296875 C 21.992188 -2.941406 22.148438 -2.671875 22.359375 -2.484375 C 22.578125 -2.304688 22.847656 -2.1875 23.171875 -2.125 C 23.492188 -2.0625 23.867188 -2.03125 24.296875 -2.03125 L 24.40625 -2.03125 L 24.40625 0 Z M 15.953125 0 "/></g></g></g><g fill="#cd5828" fill-opacity="1"><g transform="translate(158.311738, 248.770009)"><g><path d="M 3.265625 -26.59375 C 3.265625 -27.070312 3.347656 -27.484375 3.515625 -27.828125 C 3.691406 -28.179688 3.921875 -28.460938 4.203125 -28.671875 C 4.492188 -28.890625 4.832031 -29.050781 5.21875 -29.15625 C 5.613281 -29.269531 6.039062 -29.328125 6.5 -29.328125 C 6.9375 -29.328125 7.351562 -29.269531 7.75 -29.15625 C 8.144531 -29.050781 8.488281 -28.890625 8.78125 -28.671875 C 9.082031 -28.460938 9.320312 -28.179688 9.5 -27.828125 C 9.6875 -27.484375 9.78125 -27.070312 9.78125 -26.59375 C 9.78125 -26.113281 9.6875 -25.703125 9.5 -25.359375 C 9.320312 -25.015625 9.082031 -24.726562 8.78125 -24.5 C 8.488281 -24.28125 8.144531 -24.113281 7.75 -24 C 7.351562 -23.894531 6.9375 -23.84375 6.5 -23.84375 C 6.039062 -23.84375 5.613281 -23.894531 5.21875 -24 C 4.832031 -24.113281 4.492188 -24.28125 4.203125 -24.5 C 3.921875 -24.726562 3.691406 -25.015625 3.515625 -25.359375 C 3.347656 -25.703125 3.265625 -26.113281 3.265625 -26.59375 Z M 1.09375 -2.03125 C 1.382812 -2.03125 1.6875 -2.054688 2 -2.109375 C 2.3125 -2.160156 2.597656 -2.273438 2.859375 -2.453125 C 3.128906 -2.628906 3.351562 -2.878906 3.53125 -3.203125 C 3.71875 -3.523438 3.8125 -3.957031 3.8125 -4.5 L 3.8125 -16.0625 C 3.8125 -16.570312 3.71875 -16.976562 3.53125 -17.28125 C 3.351562 -17.582031 3.128906 -17.816406 2.859375 -17.984375 C 2.585938 -18.148438 2.289062 -18.257812 1.96875 -18.3125 C 1.65625 -18.363281 1.363281 -18.390625 1.09375 -18.390625 L 0.65625 -18.390625 L 0.65625 -20.421875 L 9.59375 -20.421875 L 9.59375 -4.5 C 9.59375 -3.957031 9.679688 -3.523438 9.859375 -3.203125 C 10.046875 -2.878906 10.269531 -2.628906 10.53125 -2.453125 C 10.800781 -2.273438 11.097656 -2.160156 11.421875 -2.109375 C 11.742188 -2.054688 12.039062 -2.03125 12.3125 -2.03125 L 12.75 -2.03125 L 12.75 0 L 0.65625 0 L 0.65625 -2.03125 Z M 1.09375 -2.03125 "/></g></g></g><g fill="#cd5828" fill-opacity="1"><g transform="translate(171.716296, 248.770009)"><g/></g></g><g fill="#cd5828" fill-opacity="1"><g transform="translate(181.607038, 248.770009)"><g><path d="M 11.953125 -2.703125 C 12.453125 -2.703125 12.925781 -2.734375 13.375 -2.796875 C 13.832031 -2.867188 14.257812 -2.953125 14.65625 -3.046875 L 14.65625 -0.578125 C 14.457031 -0.472656 14.1875 -0.363281 13.84375 -0.25 C 13.5 -0.144531 13.097656 -0.046875 12.640625 0.046875 C 12.191406 0.140625 11.679688 0.21875 11.109375 0.28125 C 10.546875 0.34375 9.929688 0.375 9.265625 0.375 C 8.398438 0.375 7.617188 0.269531 6.921875 0.0625 C 6.234375 -0.132812 5.644531 -0.472656 5.15625 -0.953125 C 4.675781 -1.429688 4.304688 -2.050781 4.046875 -2.8125 C 3.785156 -3.570312 3.65625 -4.515625 3.65625 -5.640625 L 3.65625 -17.8125 L 0.796875 -17.8125 L 0.796875 -19.765625 C 1.617188 -19.765625 2.347656 -19.925781 2.984375 -20.25 C 3.628906 -20.570312 4.144531 -20.941406 4.53125 -21.359375 C 5.3125 -22.179688 5.894531 -23.441406 6.28125 -25.140625 L 9.4375 -25.140625 L 9.4375 -20.421875 L 14.3125 -20.421875 L 14.3125 -17.8125 L 9.4375 -17.8125 L 9.4375 -6.03125 C 9.4375 -4.875 9.628906 -4.03125 10.015625 -3.5 C 10.410156 -2.96875 11.054688 -2.703125 11.953125 -2.703125 Z M 11.953125 -2.703125 "/></g></g></g><g fill="#cd5828" fill-opacity="1"><g transform="translate(197.019491, 248.770009)"><g><path d="M 16.859375 0 L 16.03125 -2.703125 L 15.84375 -2.703125 C 15.457031 -2.035156 15.039062 -1.5 14.59375 -1.09375 C 14.144531 -0.695312 13.664062 -0.390625 13.15625 -0.171875 C 12.65625 0.046875 12.117188 0.191406 11.546875 0.265625 C 10.984375 0.335938 10.40625 0.375 9.8125 0.375 C 7.832031 0.375 6.3125 -0.238281 5.25 -1.46875 C 4.1875 -2.695312 3.65625 -4.59375 3.65625 -7.15625 L 3.65625 -15.6875 C 3.65625 -16.25 3.601562 -16.703125 3.5 -17.046875 C 3.40625 -17.390625 3.253906 -17.660156 3.046875 -17.859375 C 2.835938 -18.066406 2.566406 -18.207031 2.234375 -18.28125 C 1.910156 -18.351562 1.519531 -18.390625 1.0625 -18.390625 L 0.984375 -18.390625 L 0.984375 -20.421875 L 9.4375 -20.421875 L 9.4375 -8.21875 C 9.4375 -7.394531 9.484375 -6.65625 9.578125 -6 C 9.671875 -5.34375 9.828125 -4.78125 10.046875 -4.3125 C 10.273438 -3.851562 10.578125 -3.492188 10.953125 -3.234375 C 11.328125 -2.984375 11.789062 -2.859375 12.34375 -2.859375 C 12.945312 -2.859375 13.46875 -2.988281 13.90625 -3.25 C 14.351562 -3.519531 14.710938 -3.90625 14.984375 -4.40625 C 15.265625 -4.914062 15.46875 -5.523438 15.59375 -6.234375 C 15.726562 -6.953125 15.796875 -7.753906 15.796875 -8.640625 L 15.796875 -15.953125 C 15.796875 -16.515625 15.722656 -16.953125 15.578125 -17.265625 C 15.429688 -17.585938 15.234375 -17.832031 14.984375 -18 C 14.734375 -18.175781 14.441406 -18.285156 14.109375 -18.328125 C 13.773438 -18.367188 13.421875 -18.390625 13.046875 -18.390625 L 12.9375 -18.390625 L 12.9375 -20.421875 L 21.59375 -20.421875 L 21.59375 -4.421875 C 21.59375 -3.867188 21.65625 -3.429688 21.78125 -3.109375 C 21.914062 -2.796875 22.09375 -2.554688 22.3125 -2.390625 C 22.53125 -2.234375 22.796875 -2.132812 23.109375 -2.09375 C 23.421875 -2.050781 23.765625 -2.03125 24.140625 -2.03125 L 24.453125 -2.03125 L 24.453125 0 Z M 16.859375 0 "/></g></g></g><g fill="#cd5828" fill-opacity="1"><g transform="translate(222.415644, 248.770009)"><g><path d="M 11.953125 -2.703125 C 12.453125 -2.703125 12.925781 -2.734375 13.375 -2.796875 C 13.832031 -2.867188 14.257812 -2.953125 14.65625 -3.046875 L 14.65625 -0.578125 C 14.457031 -0.472656 14.1875 -0.363281 13.84375 -0.25 C 13.5 -0.144531 13.097656 -0.046875 12.640625 0.046875 C 12.191406 0.140625 11.679688 0.21875 11.109375 0.28125 C 10.546875 0.34375 9.929688 0.375 9.265625 0.375 C 8.398438 0.375 7.617188 0.269531 6.921875 0.0625 C 6.234375 -0.132812 5.644531 -0.472656 5.15625 -0.953125 C 4.675781 -1.429688 4.304688 -2.050781 4.046875 -2.8125 C 3.785156 -3.570312 3.65625 -4.515625 3.65625 -5.640625 L 3.65625 -17.8125 L 0.796875 -17.8125 L 0.796875 -19.765625 C 1.617188 -19.765625 2.347656 -19.925781 2.984375 -20.25 C 3.628906 -20.570312 4.144531 -20.941406 4.53125 -21.359375 C 5.3125 -22.179688 5.894531 -23.441406 6.28125 -25.140625 L 9.4375 -25.140625 L 9.4375 -20.421875 L 14.3125 -20.421875 L 14.3125 -17.8125 L 9.4375 -17.8125 L 9.4375 -6.03125 C 9.4375 -4.875 9.628906 -4.03125 10.015625 -3.5 C 10.410156 -2.96875 11.054688 -2.703125 11.953125 -2.703125 Z M 11.953125 -2.703125 "/></g></g></g><g fill="#cd5828" fill-opacity="1"><g transform="translate(237.828097, 248.770009)"><g><path d="M 21.546875 -10.28125 C 21.546875 -6.695312 20.707031 -4.023438 19.03125 -2.265625 C 17.351562 -0.503906 14.882812 0.375 11.625 0.375 C 10.09375 0.375 8.71875 0.15625 7.5 -0.28125 C 6.289062 -0.726562 5.257812 -1.390625 4.40625 -2.265625 C 3.5625 -3.148438 2.910156 -4.257812 2.453125 -5.59375 C 2.003906 -6.9375 1.78125 -8.5 1.78125 -10.28125 C 1.78125 -13.863281 2.617188 -16.523438 4.296875 -18.265625 C 5.984375 -20.015625 8.460938 -20.890625 11.734375 -20.890625 C 13.253906 -20.890625 14.617188 -20.671875 15.828125 -20.234375 C 17.035156 -19.804688 18.0625 -19.148438 18.90625 -18.265625 C 19.757812 -17.390625 20.410156 -16.285156 20.859375 -14.953125 C 21.316406 -13.617188 21.546875 -12.0625 21.546875 -10.28125 Z M 7.703125 -10.28125 C 7.703125 -8.925781 7.769531 -7.734375 7.90625 -6.703125 C 8.050781 -5.679688 8.28125 -4.820312 8.59375 -4.125 C 8.914062 -3.4375 9.328125 -2.914062 9.828125 -2.5625 C 10.335938 -2.207031 10.957031 -2.03125 11.6875 -2.03125 C 12.425781 -2.03125 13.046875 -2.207031 13.546875 -2.5625 C 14.046875 -2.914062 14.453125 -3.4375 14.765625 -4.125 C 15.085938 -4.820312 15.316406 -5.679688 15.453125 -6.703125 C 15.585938 -7.734375 15.65625 -8.925781 15.65625 -10.28125 C 15.65625 -11.644531 15.582031 -12.835938 15.4375 -13.859375 C 15.300781 -14.878906 15.070312 -15.726562 14.75 -16.40625 C 14.4375 -17.09375 14.023438 -17.609375 13.515625 -17.953125 C 13.003906 -18.296875 12.382812 -18.46875 11.65625 -18.46875 C 10.925781 -18.46875 10.304688 -18.296875 9.796875 -17.953125 C 9.285156 -17.609375 8.875 -17.09375 8.5625 -16.40625 C 8.257812 -15.726562 8.039062 -14.878906 7.90625 -13.859375 C 7.769531 -12.835938 7.703125 -11.644531 7.703125 -10.28125 Z M 7.703125 -10.28125 "/></g></g></g><g fill="#cd5828" fill-opacity="1"><g transform="translate(261.16058, 248.770009)"><g><path d="M 13.484375 0 L 0.765625 0 L 0.765625 -2.03125 L 0.875 -2.03125 C 1.3125 -2.03125 1.707031 -2.0625 2.0625 -2.125 C 2.425781 -2.1875 2.738281 -2.3125 3 -2.5 C 3.257812 -2.6875 3.457031 -2.960938 3.59375 -3.328125 C 3.738281 -3.691406 3.8125 -4.171875 3.8125 -4.765625 L 3.8125 -15.796875 C 3.8125 -16.359375 3.742188 -16.804688 3.609375 -17.140625 C 3.484375 -17.484375 3.300781 -17.75 3.0625 -17.9375 C 2.820312 -18.125 2.53125 -18.242188 2.1875 -18.296875 C 1.851562 -18.359375 1.476562 -18.390625 1.0625 -18.390625 L 0.953125 -18.390625 L 0.953125 -20.421875 L 8.640625 -20.421875 L 9.40625 -17.4375 L 9.59375 -17.4375 C 9.84375 -18.007812 10.113281 -18.507812 10.40625 -18.9375 C 10.707031 -19.363281 11.066406 -19.71875 11.484375 -20 C 11.898438 -20.289062 12.390625 -20.503906 12.953125 -20.640625 C 13.515625 -20.785156 14.1875 -20.859375 14.96875 -20.859375 C 16.46875 -20.859375 17.570312 -20.59375 18.28125 -20.0625 C 18.988281 -19.539062 19.34375 -18.78125 19.34375 -17.78125 C 19.34375 -16.613281 18.921875 -15.707031 18.078125 -15.0625 C 17.234375 -14.414062 16.039062 -14.09375 14.5 -14.09375 C 14.5 -14.613281 14.46875 -15.070312 14.40625 -15.46875 C 14.351562 -15.863281 14.253906 -16.191406 14.109375 -16.453125 C 13.972656 -16.710938 13.785156 -16.910156 13.546875 -17.046875 C 13.304688 -17.179688 13.003906 -17.25 12.640625 -17.25 C 12.191406 -17.25 11.804688 -17.132812 11.484375 -16.90625 C 11.160156 -16.6875 10.890625 -16.398438 10.671875 -16.046875 C 10.453125 -15.703125 10.269531 -15.304688 10.125 -14.859375 C 9.976562 -14.410156 9.863281 -13.957031 9.78125 -13.5 C 9.707031 -13.050781 9.65625 -12.625 9.625 -12.21875 C 9.601562 -11.8125 9.59375 -11.457031 9.59375 -11.15625 L 9.59375 -4.578125 C 9.59375 -4.015625 9.660156 -3.5625 9.796875 -3.21875 C 9.929688 -2.882812 10.113281 -2.628906 10.34375 -2.453125 C 10.582031 -2.273438 10.863281 -2.160156 11.1875 -2.109375 C 11.519531 -2.054688 11.875 -2.03125 12.25 -2.03125 L 13.484375 -2.03125 Z M 13.484375 0 "/></g></g></g><g fill="#05686e" fill-opacity="1"><g transform="translate(79.144626, 276.761032)"><g><path d="M 2.671875 -3.613281 L 4.464844 -8.132812 L 6.242188 -3.613281 Z M 8.769531 0 L 4.464844 -10.503906 L 0.144531 0 L 1.242188 0 L 2.296875 -2.671875 L 6.617188 -2.671875 L 7.671875 0 Z M 8.769531 0 "/></g></g></g><g fill="#05686e" fill-opacity="1"><g transform="translate(90.673148, 276.761032)"><g><path d="M 8.710938 -4.914062 C 8.710938 -5.621094 8.566406 -6.269531 8.308594 -6.878906 C 8.046875 -7.484375 7.6875 -8.003906 7.238281 -8.4375 C 6.777344 -8.871094 6.242188 -9.203125 5.632812 -9.449219 C 5.011719 -9.695312 4.347656 -9.824219 3.65625 -9.824219 L 1.082031 -9.824219 L 1.082031 0 L 3.65625 0 C 4.347656 0 5.011719 -0.117188 5.632812 -0.359375 C 6.242188 -0.605469 6.777344 -0.953125 7.238281 -1.386719 C 7.6875 -1.820312 8.046875 -2.324219 8.308594 -2.933594 C 8.566406 -3.539062 8.710938 -4.191406 8.710938 -4.914062 Z M 7.730469 -4.914062 C 7.730469 -3.785156 7.324219 -2.847656 6.542969 -2.109375 C 5.765625 -1.371094 4.8125 -1.011719 3.683594 -1.011719 L 2.09375 -1.011719 L 2.09375 -8.8125 L 3.683594 -8.8125 C 4.8125 -8.8125 5.765625 -8.4375 6.542969 -7.714844 C 7.324219 -6.964844 7.730469 -6.023438 7.730469 -4.914062 Z M 7.730469 -4.914062 "/></g></g></g><g fill="#05686e" fill-opacity="1"><g transform="translate(102.649437, 276.761032)"><g><path d="M 8.710938 -4.914062 C 8.710938 -5.621094 8.566406 -6.269531 8.308594 -6.878906 C 8.046875 -7.484375 7.6875 -8.003906 7.238281 -8.4375 C 6.777344 -8.871094 6.242188 -9.203125 5.632812 -9.449219 C 5.011719 -9.695312 4.347656 -9.824219 3.65625 -9.824219 L 1.082031 -9.824219 L 1.082031 0 L 3.65625 0 C 4.347656 0 5.011719 -0.117188 5.632812 -0.359375 C 6.242188 -0.605469 6.777344 -0.953125 7.238281 -1.386719 C 7.6875 -1.820312 8.046875 -2.324219 8.308594 -2.933594 C 8.566406 -3.539062 8.710938 -4.191406 8.710938 -4.914062 Z M 7.730469 -4.914062 C 7.730469 -3.785156 7.324219 -2.847656 6.542969 -2.109375 C 5.765625 -1.371094 4.8125 -1.011719 3.683594 -1.011719 L 2.09375 -1.011719 L 2.09375 -8.8125 L 3.683594 -8.8125 C 4.8125 -8.8125 5.765625 -8.4375 6.542969 -7.714844 C 7.324219 -6.964844 7.730469 -6.023438 7.730469 -4.914062 Z M 7.730469 -4.914062 "/></g></g></g><g fill="#05686e" fill-opacity="1"><g transform="translate(114.625726, 276.761032)"><g><path d="M 2.09375 0 L 2.09375 -9.824219 L 1.082031 -9.824219 L 1.082031 0 Z M 2.09375 0 "/></g></g></g><g fill="#05686e" fill-opacity="1"><g transform="translate(120.420046, 276.761032)"><g><path d="M 3.800781 -4.625 C 5.070312 -4.320312 5.9375 -3.988281 6.402344 -3.613281 C 6.71875 -3.351562 6.878906 -3.019531 6.878906 -2.613281 C 6.878906 -2.210938 6.789062 -1.878906 6.617188 -1.648438 C 6.183594 -1.039062 5.402344 -0.738281 4.304688 -0.738281 C 2.773438 -0.738281 1.90625 -1.257812 1.71875 -2.296875 L 0.535156 -2.296875 C 0.882812 -0.636719 2.136719 0.1875 4.304688 0.1875 C 5.273438 0.1875 6.082031 -0.015625 6.734375 -0.449219 C 7.511719 -0.953125 7.917969 -1.703125 7.917969 -2.6875 C 7.917969 -3.496094 7.597656 -4.117188 6.964844 -4.550781 C 6.515625 -4.867188 5.792969 -5.15625 4.796875 -5.417969 C 3.785156 -5.679688 3.136719 -5.894531 2.832031 -6.054688 C 2.167969 -6.386719 1.835938 -6.847656 1.847656 -7.457031 C 1.847656 -7.773438 1.90625 -8.046875 2.050781 -8.25 C 2.425781 -8.8125 3.09375 -9.101562 4.046875 -9.101562 C 5.390625 -9.101562 6.15625 -8.667969 6.355469 -7.832031 L 7.457031 -7.832031 C 7.09375 -9.246094 5.953125 -9.96875 4.046875 -9.96875 C 3.179688 -9.96875 2.414062 -9.738281 1.777344 -9.277344 C 1.125 -8.8125 0.792969 -8.132812 0.792969 -7.210938 C 0.792969 -5.953125 1.804688 -5.085938 3.800781 -4.625 Z M 3.800781 -4.625 "/></g></g></g><g fill="#05686e" fill-opacity="1"><g transform="translate(131.327489, 276.761032)"><g/></g></g><g fill="#05686e" fill-opacity="1"><g transform="translate(137.843993, 276.761032)"><g><path d="M 2.671875 -3.613281 L 4.464844 -8.132812 L 6.242188 -3.613281 Z M 8.769531 0 L 4.464844 -10.503906 L 0.144531 0 L 1.242188 0 L 2.296875 -2.671875 L 6.617188 -2.671875 L 7.671875 0 Z M 8.769531 0 "/></g></g></g><g fill="#05686e" fill-opacity="1"><g transform="translate(149.372511, 276.761032)"><g><path d="M 7.5 -2.730469 C 7.5 -3.425781 7.324219 -4.015625 6.992188 -4.480469 C 6.644531 -4.941406 6.183594 -5.257812 5.621094 -5.417969 C 5.953125 -5.5625 6.242188 -5.824219 6.457031 -6.210938 C 6.558594 -6.386719 6.632812 -6.558594 6.6875 -6.746094 C 6.746094 -6.933594 6.777344 -7.195312 6.777344 -7.527344 C 6.777344 -7.84375 6.6875 -8.175781 6.542969 -8.496094 C 6.113281 -9.375 5.171875 -9.824219 3.742188 -9.824219 L 1.082031 -9.824219 L 1.082031 0 L 4.089844 0 C 5.085938 0 5.878906 -0.214844 6.488281 -0.679688 C 6.789062 -0.910156 7.035156 -1.214844 7.222656 -1.589844 C 7.398438 -1.949219 7.5 -2.324219 7.5 -2.730469 Z M 5.765625 -7.367188 C 5.765625 -6.832031 5.605469 -6.445312 5.289062 -6.183594 C 4.96875 -5.921875 4.550781 -5.792969 4.03125 -5.792969 L 2.09375 -5.792969 L 2.09375 -8.855469 L 3.742188 -8.855469 C 5.085938 -8.855469 5.765625 -8.351562 5.765625 -7.367188 Z M 6.488281 -2.933594 C 6.488281 -2.339844 6.285156 -1.863281 5.878906 -1.503906 C 5.488281 -1.140625 4.984375 -0.96875 4.378906 -0.96875 L 2.09375 -0.96875 L 2.09375 -4.78125 L 4.535156 -4.78125 C 5.042969 -4.78125 5.488281 -4.609375 5.878906 -4.261719 C 6.054688 -4.101562 6.199219 -3.914062 6.3125 -3.699219 C 6.429688 -3.46875 6.488281 -3.222656 6.488281 -2.933594 Z M 6.488281 -2.933594 "/></g></g></g><g fill="#05686e" fill-opacity="1"><g transform="translate(159.77442, 276.761032)"><g><path d="M 2.671875 -3.613281 L 4.464844 -8.132812 L 6.242188 -3.613281 Z M 8.769531 0 L 4.464844 -10.503906 L 0.144531 0 L 1.242188 0 L 2.296875 -2.671875 L 6.617188 -2.671875 L 7.671875 0 Z M 8.769531 0 "/></g></g></g><g fill="#05686e" fill-opacity="1"><g transform="translate(171.302944, 276.761032)"><g><path d="M 7.5 -2.730469 C 7.5 -3.425781 7.324219 -4.015625 6.992188 -4.480469 C 6.644531 -4.941406 6.183594 -5.257812 5.621094 -5.417969 C 5.953125 -5.5625 6.242188 -5.824219 6.457031 -6.210938 C 6.558594 -6.386719 6.632812 -6.558594 6.6875 -6.746094 C 6.746094 -6.933594 6.777344 -7.195312 6.777344 -7.527344 C 6.777344 -7.84375 6.6875 -8.175781 6.542969 -8.496094 C 6.113281 -9.375 5.171875 -9.824219 3.742188 -9.824219 L 1.082031 -9.824219 L 1.082031 0 L 4.089844 0 C 5.085938 0 5.878906 -0.214844 6.488281 -0.679688 C 6.789062 -0.910156 7.035156 -1.214844 7.222656 -1.589844 C 7.398438 -1.949219 7.5 -2.324219 7.5 -2.730469 Z M 5.765625 -7.367188 C 5.765625 -6.832031 5.605469 -6.445312 5.289062 -6.183594 C 4.96875 -5.921875 4.550781 -5.792969 4.03125 -5.792969 L 2.09375 -5.792969 L 2.09375 -8.855469 L 3.742188 -8.855469 C 5.085938 -8.855469 5.765625 -8.351562 5.765625 -7.367188 Z M 6.488281 -2.933594 C 6.488281 -2.339844 6.285156 -1.863281 5.878906 -1.503906 C 5.488281 -1.140625 4.984375 -0.96875 4.378906 -0.96875 L 2.09375 -0.96875 L 2.09375 -4.78125 L 4.535156 -4.78125 C 5.042969 -4.78125 5.488281 -4.609375 5.878906 -4.261719 C 6.054688 -4.101562 6.199219 -3.914062 6.3125 -3.699219 C 6.429688 -3.46875 6.488281 -3.222656 6.488281 -2.933594 Z M 6.488281 -2.933594 "/></g></g></g><g fill="#05686e" fill-opacity="1"><g transform="translate(181.704853, 276.761032)"><g><path d="M 2.671875 -3.613281 L 4.464844 -8.132812 L 6.242188 -3.613281 Z M 8.769531 0 L 4.464844 -10.503906 L 0.144531 0 L 1.242188 0 L 2.296875 -2.671875 L 6.617188 -2.671875 L 7.671875 0 Z M 8.769531 0 "/></g></g></g><g fill="#05686e" fill-opacity="1"><g transform="translate(193.233377, 276.761032)"><g/></g></g><g fill="#05686e" fill-opacity="1"><g transform="translate(199.749885, 276.761032)"><g><path d="M 8.191406 -3.25 L 8.191406 -9.824219 L 7.179688 -9.824219 L 7.179688 -3.105469 C 7.179688 -2.703125 7.109375 -2.371094 6.964844 -2.09375 C 6.542969 -1.285156 5.734375 -0.882812 4.535156 -0.882812 C 3.757812 -0.882812 3.136719 -1.054688 2.671875 -1.402344 C 2.136719 -1.792969 1.878906 -2.355469 1.878906 -3.105469 L 1.878906 -9.824219 L 0.867188 -9.824219 L 0.867188 -3.25 C 0.867188 -2.179688 1.214844 -1.34375 1.90625 -0.738281 C 2.558594 -0.160156 3.4375 0.128906 4.535156 0.128906 C 5.621094 0.128906 6.488281 -0.160156 7.152344 -0.738281 C 7.84375 -1.34375 8.191406 -2.179688 8.191406 -3.25 Z M 8.191406 -3.25 "/></g></g></g><g fill="#05686e" fill-opacity="1"><g transform="translate(211.422849, 276.761032)"><g><path d="M 2.09375 -7.238281 L 7.613281 0.605469 L 7.613281 -9.824219 L 6.601562 -9.824219 L 6.601562 -2.601562 L 1.082031 -10.445312 L 1.082031 0 L 2.09375 0 Z M 2.09375 -7.238281 "/></g></g></g><g fill="#05686e" fill-opacity="1"><g transform="translate(222.734715, 276.761032)"><g><path d="M 2.09375 0 L 2.09375 -9.824219 L 1.082031 -9.824219 L 1.082031 0 Z M 2.09375 0 "/></g></g></g><g fill="#05686e" fill-opacity="1"><g transform="translate(228.529039, 276.761032)"><g><path d="M 4.609375 0.59375 L 9.058594 -9.824219 L 7.960938 -9.824219 L 4.609375 -1.90625 L 1.242188 -9.824219 L 0.144531 -9.824219 Z M 4.609375 0.59375 "/></g></g></g><g fill="#05686e" fill-opacity="1"><g transform="translate(240.346442, 276.761032)"><g><path d="M 6.921875 0 L 6.921875 -0.9375 L 2.09375 -0.9375 L 2.09375 -4.433594 L 6.777344 -4.433594 L 6.777344 -5.390625 L 2.09375 -5.390625 L 2.09375 -8.886719 L 6.921875 -8.886719 L 6.921875 -9.824219 L 1.082031 -9.824219 L 1.082031 0 Z M 6.921875 0 "/></g></g></g><g fill="#05686e" fill-opacity="1"><g transform="translate(250.96501, 276.761032)"><g><path d="M 2.09375 -4.855469 L 2.09375 -8.855469 L 4.378906 -8.855469 C 4.96875 -8.855469 5.445312 -8.667969 5.808594 -8.292969 C 6.15625 -7.917969 6.34375 -7.457031 6.34375 -6.878906 C 6.34375 -6.300781 6.15625 -5.824219 5.777344 -5.433594 C 5.402344 -5.042969 4.941406 -4.855469 4.378906 -4.855469 Z M 7.355469 -6.863281 C 7.355469 -7.699219 7.035156 -8.421875 6.429688 -8.988281 C 5.835938 -9.535156 5.101562 -9.824219 4.234375 -9.824219 L 1.082031 -9.824219 L 1.082031 0 L 2.09375 0 L 2.09375 -3.886719 L 3.265625 -3.886719 L 6.15625 0 L 7.511719 0 L 4.480469 -3.886719 C 5.246094 -3.929688 5.894531 -4.203125 6.429688 -4.710938 C 7.035156 -5.273438 7.355469 -5.996094 7.355469 -6.863281 Z M 7.355469 -6.863281 "/></g></g></g><g fill="#05686e" fill-opacity="1"><g transform="translate(261.439138, 276.761032)"><g><path d="M 3.800781 -4.625 C 5.070312 -4.320312 5.9375 -3.988281 6.402344 -3.613281 C 6.71875 -3.351562 6.878906 -3.019531 6.878906 -2.613281 C 6.878906 -2.210938 6.789062 -1.878906 6.617188 -1.648438 C 6.183594 -1.039062 5.402344 -0.738281 4.304688 -0.738281 C 2.773438 -0.738281 1.90625 -1.257812 1.71875 -2.296875 L 0.535156 -2.296875 C 0.882812 -0.636719 2.136719 0.1875 4.304688 0.1875 C 5.273438 0.1875 6.082031 -0.015625 6.734375 -0.449219 C 7.511719 -0.953125 7.917969 -1.703125 7.917969 -2.6875 C 7.917969 -3.496094 7.597656 -4.117188 6.964844 -4.550781 C 6.515625 -4.867188 5.792969 -5.15625 4.796875 -5.417969 C 3.785156 -5.679688 3.136719 -5.894531 2.832031 -6.054688 C 2.167969 -6.386719 1.835938 -6.847656 1.847656 -7.457031 C 1.847656 -7.773438 1.90625 -8.046875 2.050781 -8.25 C 2.425781 -8.8125 3.09375 -9.101562 4.046875 -9.101562 C 5.390625 -9.101562 6.15625 -8.667969 6.355469 -7.832031 L 7.457031 -7.832031 C 7.09375 -9.246094 5.953125 -9.96875 4.046875 -9.96875 C 3.179688 -9.96875 2.414062 -9.738281 1.777344 -9.277344 C 1.125 -8.8125 0.792969 -8.132812 0.792969 -7.210938 C 0.792969 -5.953125 1.804688 -5.085938 3.800781 -4.625 Z M 3.800781 -4.625 "/></g></g></g><g fill="#05686e" fill-opacity="1"><g transform="translate(272.346584, 276.761032)"><g><path d="M 2.09375 0 L 2.09375 -9.824219 L 1.082031 -9.824219 L 1.082031 0 Z M 2.09375 0 "/></g></g></g><g fill="#05686e" fill-opacity="1"><g transform="translate(278.140908, 276.761032)"><g><path d="M 0.289062 -8.914062 L 2.671875 -8.914062 L 2.671875 -0.0273438 L 3.683594 -0.0273438 L 3.683594 -8.914062 L 6.066406 -8.914062 L 6.066406 -9.851562 L 0.289062 -9.851562 Z M 0.289062 -8.914062 "/></g></g></g><g fill="#05686e" fill-opacity="1"><g transform="translate(287.112872, 276.761032)"><g><path d="M 4.882812 -4.625 L 8.597656 -9.824219 L 7.3125 -9.824219 L 4.378906 -5.621094 L 1.445312 -9.824219 L 0.144531 -9.824219 L 3.871094 -4.609375 L 3.871094 0 L 4.882812 0 Z M 4.882812 -4.625 "/></g></g></g></svg>